HIERARCHY
ROOT root
{
	OFFSET 0.000000 0.000000 0.000000
	CHANNELS 6 Xposition Yposition Zposition Zrotation Yrotation Xrotation
	JOINT lhip
	{
		OFFSET 0.058581 -0.082280 -0.017664
		CHANNELS 3 Zrotation Yrotation Xrotation
		JOINT lknee
		{
			OFFSET 0.043451 -0.386469 0.008037
			CHANNELS 3 Zrotation Yrotation Xrotation
			JOINT lankle
			{
				OFFSET -0.014790 -0.426874 -0.037428
				CHANNELS 3 Zrotation Yrotation Xrotation
				JOINT ltoe
				{
					OFFSET 0.041054 -0.060286 0.122042
					CHANNELS 3 Zrotation Yrotation Xrotation
					End Site
					{
						OFFSET 0.000000 0.000000 0.000000
					}
				}
			}
		}
	}
	JOINT rhip
	{
		OFFSET -0.060310 -0.090513 -0.013543
		CHANNELS 3 Zrotation Yrotation Xrotation
		JOINT rknee
		{
			OFFSET -0.043257 -0.383688 -0.004843
			CHANNELS 3 Zrotation Yrotation Xrotation
			JOINT rankle
			{
				OFFSET 0.019056 -0.420046 -0.034562
				CHANNELS 3 Zrotation Yrotation Xrotation
				JOINT rtoe
				{
					OFFSET -0.034840 -0.062106 0.130323
					CHANNELS 3 Zrotation Yrotation Xrotation
					End Site
					{
						OFFSET 0.000000 0.000000 0.000000
					}
				}
			}
		}
	}
	JOINT lowerback
	{
		OFFSET 0.004439 0.124404 -0.038385
		CHANNELS 3 Zrotation Yrotation Xrotation
		JOINT upperback
		{
			OFFSET 0.004488 0.137956 0.026820
			CHANNELS 3 Zrotation Yrotation Xrotation
			JOINT chest
			{
				OFFSET -0.002265 0.056032 0.002855
				CHANNELS 3 Zrotation Yrotation Xrotation
				JOINT lowerneck
				{
					OFFSET -0.013390 0.211636 -0.033468
					CHANNELS 3 Zrotation Yrotation Xrotation
					JOINT upperneck
					{
						OFFSET 0.010113 0.088937 0.050410
						CHANNELS 3 Zrotation Yrotation Xrotation
						End Site
						{
							OFFSET 0.000000 0.000000 0.000000
						}
					}
				}
				JOINT lclavicle
				{
					OFFSET 0.071702 0.114000 -0.018898
					CHANNELS 3 Zrotation Yrotation Xrotation
					JOINT lshoulder
					{
						OFFSET 0.122921 0.045205 -0.019046
						CHANNELS 3 Zrotation Yrotation Xrotation
						JOINT lelbow
						{
							OFFSET 0.255332 -0.015649 -0.022946
							CHANNELS 3 Zrotation Yrotation Xrotation
							JOINT lwrist
							{
								OFFSET 0.265709 0.012698 -0.007375
								CHANNELS 3 Zrotation Yrotation Xrotation
								End Site
								{
									OFFSET 0.000000 0.000000 0.000000
								}
							}
						}
					}
				}
				JOINT rclavicle
				{
					OFFSET -0.082954 0.112472 -0.023707
					CHANNELS 3 Zrotation Yrotation Xrotation
					JOINT rshoulder
					{
						OFFSET -0.113228 0.046853 -0.008472
						CHANNELS 3 Zrotation Yrotation Xrotation
						JOINT relbow
						{
							OFFSET -0.260127 -0.014369 -0.031269
							CHANNELS 3 Zrotation Yrotation Xrotation
							JOINT rwrist
							{
								OFFSET -0.269108 0.006794 -0.006027
								CHANNELS 3 Zrotation Yrotation Xrotation
								End Site
								{
									OFFSET 0.000000 0.000000 0.000000
								}
							}
						}
					}
				}
			}
		}
	}
}
MOTION
Frames: 12
Frame Time: 0.033333
-1.452758 0.488738 0.987363 87.110245 0.794113 86.012039 -0.756164 3.251452 7.777618 -1.751621 -2.935580 -1.491653 4.323072 10.139446 -20.991957 0.000000 -0.000000 0.000000 1.953981 -3.325768 2.951607 -0.321982 -5.866822 6.002482 1.378488 -7.774379 -12.282965 0.000000 -0.000000 0.000000 0.488990 -0.101286 7.553312 1.236179 -2.242562 0.570644 0.797718 -0.692379 0.905835 1.082293 2.531687 -6.160081 1.685924 -1.257036 0.420368 -26.249680 2.509752 4.855630 -56.925259 -1.373257 14.000411 0.442654 -41.062263 16.190477 6.129321 -11.487071 -14.109496 26.742667 3.629471 4.792913 54.338880 3.266584 16.330427 -4.124842 33.523923 8.983390 -6.886826 10.285827 -3.925256 
-1.453184 0.488777 0.987212 87.219520 0.769932 86.221121 -0.825425 3.021199 7.477218 -1.743017 -2.941668 -1.415252 4.107342 10.295987 -21.070036 0.000000 -0.000000 0.000000 1.959260 -3.010450 2.853018 -0.227694 -5.726098 5.709132 1.758161 -8.221254 -12.330274 0.000000 -0.000000 0.000000 0.480883 -0.348939 7.287582 1.117060 -2.030859 0.440067 0.817500 -0.642571 1.282738 1.171191 2.518988 -6.789615 1.526658 -1.278376 0.943560 -26.071726 2.579748 4.795717 -57.104977 -1.546277 14.008245 0.499361 -40.901495 16.191135 5.962573 -11.574123 -14.056288 26.622349 3.694686 4.595558 54.539562 3.241128 16.607234 -4.274300 33.458201 8.694267 -6.677799 10.165962 -3.948920 
-1.453329 0.488797 0.987133 87.305836 0.759627 86.280538 -0.829495 3.040405 7.427690 -1.740590 -2.979970 -1.475889 4.094770 10.231991 -21.072636 0.000000 -0.000000 0.000000 1.970846 -3.054676 2.864706 -0.242084 -5.650453 5.528002 1.820861 -8.152717 -12.324193 0.000000 -0.000000 0.000000 0.501865 -0.363567 7.245300 1.087833 -2.015762 0.379278 0.800942 -0.633375 1.317825 1.169629 2.528686 -6.841349 1.501424 -1.290204 1.027973 -26.021563 2.632728 4.789508 -57.157477 -1.552405 13.991659 0.441723 -40.821891 16.303328 5.987529 -11.597167 -14.048391 26.551013 3.667805 4.590867 54.653788 3.258173 16.617265 -4.303465 33.460870 8.713545 -6.850773 10.248277 -3.903122 
-1.453534 0.488904 0.986936 87.367234 0.756081 86.352102 -0.845547 3.069095 7.337060 -1.710676 -2.988195 -1.469991 4.085545 10.138805 -21.158541 0.000000 -0.000000 0.000000 2.000030 -3.151260 2.799225 -0.297817 -5.579587 5.478306 1.814998 -8.178192 -12.429762 0.000000 -0.000000 0.000000 0.511552 -0.342123 7.223968 1.083311 -2.025180 0.350683 0.801364 -0.638418 1.311338 1.170911 2.509539 -6.859806 1.496918 -1.287631 0.997177 -26.073258 2.680619 4.776807 -57.141806 -1.522568 13.955913 0.442192 -40.805055 16.287066 6.049201 -11.560728 -13.987418 26.575023 3.646430 4.582981 54.608785 3.235654 16.611647 -4.301304 33.542862 8.706346 -6.939619 10.244777 -3.891096 
-1.453619 0.488954 0.986774 87.359845 0.745791 86.426434 -0.860970 3.095890 7.251407 -1.695614 -2.974536 -1.447526 4.054649 10.089093 -21.246312 0.000000 -0.000000 0.000000 2.028358 -3.176064 2.717562 -0.356807 -5.521768 5.479356 1.829792 -8.206605 -12.597759 0.000000 -0.000000 0.000000 0.498531 -0.324896 7.189911 1.083201 -2.022822 0.319452 0.806309 -0.641528 1.316939 1.189629 2.521029 -6.889659 1.496876 -1.295776 0.967011 -26.083006 2.718550 4.761457 -57.159273 -1.499088 13.947689 0.445986 -40.783628 16.276264 6.105160 -11.528950 -14.001487 26.586867 3.622192 4.575667 54.604658 3.235093 16.624898 -4.327014 33.566819 8.682397 -7.006152 10.230778 -3.912617 
-1.453537 0.488975 0.986568 87.336213 0.728241 86.541308 -0.869818 3.140180 7.146361 -1.699448 -2.937478 -1.444691 3.973789 10.059727 -21.399063 0.000000 -0.000000 0.000000 2.077689 -3.171989 2.611178 -0.438173 -5.417843 5.496275 1.874435 -8.247620 -13.089935 0.000000 -0.000000 0.000000 0.467427 -0.307921 7.150021 1.092251 -2.029061 0.256425 0.809963 -0.649933 1.324089 1.239288 2.573707 -6.958998 1.483669 -1.351718 0.917883 -26.094926 2.783709 4.724997 -57.155020 -1.460392 13.948780 0.393526 -40.740641 16.331160 6.087677 -11.520028 -13.993813 26.616782 3.554462 4.542312 54.608078 3.224525 16.644165 -4.347327 33.578118 8.686324 -7.002892 10.204821 -3.956512 
-1.453159 0.488939 0.986321 87.278581 0.701610 86.649651 -0.912733 3.096919 6.950461 -1.702526 -2.820746 -1.196661 3.934635 10.068344 -21.652187 0.000000 -0.000000 0.000000 2.086004 -3.113125 2.481250 -0.463282 -5.302722 5.659717 1.942946 -8.282039 -13.730171 0.000000 -0.000000 0.000000 0.425762 -0.285543 7.111607 1.111218 -2.042555 0.201780 0.803565 -0.665676 1.364181 1.301576 2.650381 -7.129470 1.440659 -1.441462 0.867351 -26.083440 2.839612 4.668716 -57.165071 -1.439684 13.974074 0.334447 -40.672387 16.398008 6.023713 -11.545585 -13.966646 26.643717 3.472904 4.481911 54.627204 3.201786 16.683717 -4.363006 33.610480 8.716381 -6.944428 10.184108 -3.974431 
-1.452268 0.488789 0.986113 87.071599 0.661113 86.698411 -1.034649 2.619922 6.661852 -1.722398 -2.171098 -0.492632 3.967900 10.172903 -22.189549 0.000000 -0.000000 0.000000 2.028076 -2.944571 2.342234 -0.407972 -5.075879 6.022573 2.044288 -8.332647 -14.299054 0.000000 -0.000000 0.000000 0.389212 -0.168575 7.025058 1.135582 -2.032755 0.249289 0.769825 -0.701572 1.466026 1.381845 2.744710 -7.425007 1.332365 -1.532606 0.813954 -26.036351 2.929407 4.591149 -57.212014 -1.472770 14.052324 0.352127 -40.585338 16.407251 5.870562 -11.661233 -13.991065 26.658847 3.357892 4.399635 54.674840 3.209401 16.821321 -4.425302 33.635205 8.699870 -6.832770 10.169191 -3.980338 
-1.451115 0.488445 0.986057 86.894416 0.660156 86.717365 -1.042282 2.365172 6.435285 -1.800714 -1.779035 0.166909 3.931373 10.323508 -22.754655 0.000000 -0.000000 0.000000 2.013127 -2.776729 2.166438 -0.338224 -4.872908 6.524641 2.073925 -8.372280 -14.828091 0.000000 -0.000000 0.000000 0.336379 -0.121705 7.023501 1.189814 -2.028509 0.298974 0.767465 -0.725020 1.513863 1.411288 2.837259 -7.648503 1.234099 -1.564916 0.603887 -26.064791 3.013470 4.508531 -57.162739 -1.448227 14.098558 0.348415 -40.578186 16.406749 5.838120 -11.674037 -14.050404 26.757032 3.274699 4.319760 54.634940 3.197387 16.921529 -4.427079 33.580627 8.698568 -6.766227 10.144999 -3.984858 
-1.449415 0.487746 0.986103 86.638141 0.639785 86.757189 -0.941863 2.262582 5.653064 -2.119238 -1.536849 1.935034 3.918618 10.636807 -23.707513 0.000000 -0.000000 0.000000 1.967659 -2.657269 1.944785 -0.234576 -4.594773 7.162416 2.085857 -8.288439 -15.435264 0.000000 -0.000000 0.000000 0.217413 -0.032028 7.066835 1.258788 -2.033404 0.279811 0.762788 -0.721214 1.595501 1.442822 2.964694 -7.940898 1.139445 -1.579447 0.384361 -26.090538 3.100506 4.392537 -57.038713 -1.397406 14.095422 0.269726 -40.647949 16.482214 5.895595 -11.603699 -14.132106 26.949894 3.181900 4.275050 54.549102 3.181636 16.983725 -4.361966 33.483219 8.771318 -6.696268 10.121280 -4.063235 
-1.448050 0.487212 0.986311 86.411259 0.574516 86.754208 -0.771730 1.928977 4.048357 -2.736363 -1.120210 5.255249 3.962957 11.057790 -24.958658 0.000000 -0.000000 0.000000 1.832671 -2.677855 1.875846 -0.067154 -4.410711 7.564743 2.089440 -8.138188 -15.908119 0.000000 -0.000000 0.000000 0.130831 0.196181 7.236591 1.302164 -2.105933 0.146980 0.696299 -0.727282 1.719403 1.449010 3.033271 -8.297921 1.111652 -1.600658 0.364532 -26.124541 3.157719 4.259843 -56.872588 -1.400883 14.052249 0.190605 -40.717249 16.561785 5.967385 -11.556388 -14.236674 27.177121 3.056652 4.198644 54.425715 3.148801 17.019423 -4.248111 33.441391 8.902653 -6.622290 10.113982 -4.194372 
-1.446991 0.486866 0.986541 86.072877 0.486732 86.648190 -0.489148 1.175010 1.637450 -3.701901 -0.383853 10.316573 4.045302 11.791314 -26.381864 0.000000 -0.000000 0.000000 1.608157 -2.636923 1.903864 0.228929 -4.153544 7.998601 1.953823 -7.999449 -16.323817 0.000000 -0.000000 0.000000 0.139785 0.599301 7.654861 1.306238 -2.169571 -0.069069 0.546470 -0.733716 1.876914 1.437838 3.075379 -8.798158 1.103280 -1.699108 0.443314 -26.166821 3.123763 4.089443 -56.662428 -1.441780 14.002390 0.208592 -40.843587 16.564887 5.954813 -11.516635 -14.423889 27.398899 2.972514 4.104409 54.289789 3.066923 17.057399 -4.138525 33.509947 9.076752 -6.560043 10.070516 -4.487285 
